<?xml version="1.0" encoding="UTF-8"?>
<svg id="Capa_1" data-name="Capa 1" xmlns="http://www.w3.org/2000/svg" viewBox="0 0 181.08 12.14">
  <defs>
    <style>
      .cls-1 {
        fill: #303030;
      }
    </style>
  </defs>
  <path class="cls-1" d="m86.99,5.84c-2.79-2.5-6.24-3.94-9.45-5.8-.21-.12-.49.03-.49.28.07,3.1,3.03,4.91,6,5.6h-15.45c-.09-1.25-.72-2.19-1.5-2.19s-1.41.94-1.5,2.19h-4.31l-2.75-4.71-2.75,4.71H22.43c.01-.11-.02-.23-.14-.31C15.75,1.31,7.22,1.24.6,5.43c-.15.1-.17.25-.13.38-.15-.07-.33-.01-.42.11h-.01v.02c-.06.08-.07.19,0,.31v.32h.23c2.27,3.11,6.47,3.94,10.14,4.05,4.41.12,8.69-1.14,12.07-4,.02-.01.02-.03.03-.04h32.25l2.75,4.71,2.75-4.71h4.31c.09,1.25.72,2.19,1.5,2.19s1.41-.94,1.5-2.19h14.22c-2.5.86-4.7,2.58-4.76,5.25,0,.25.28.4.49.28,3.21-1.86,6.66-3.3,9.45-5.8.08-.07.11-.15.1-.23,0-.08-.03-.16-.1-.23Zm-9.23-4.93c2.68,1.5,5.49,2.77,7.9,4.67-2.99-.02-7.35-1.43-7.9-4.67ZM21.55,5.92H1.05c6.28-3.91,14.24-3.89,20.5,0Zm-10.37,4.06c-3.46.02-7.75-.6-10.09-3.41h20.4c-2.96,2.29-6.56,3.38-10.31,3.41Zm74.1-3.41h.36c-2.41,1.89-5.22,3.16-7.89,4.66.53-3.1,4.56-4.53,7.52-4.66Z"/>
  <path class="cls-1" d="m181.03,6.25c.07-.11.06-.22,0-.31v-.02h-.01c-.09-.12-.27-.18-.42-.11.05-.13.03-.29-.13-.38-6.61-4.19-15.14-4.12-21.69.18-.12.08-.16.2-.14.31h-32.35l-2.75-4.71-2.75,4.71h-4.31c-.09-1.25-.72-2.19-1.5-2.19s-1.41.94-1.5,2.19h-15.45c2.97-.68,5.92-2.5,5.99-5.6,0-.25-.28-.4-.49-.28-3.21,1.86-6.66,3.3-9.45,5.8-.08.07-.11.15-.1.23,0,.08.02.16.1.23,2.79,2.5,6.24,3.94,9.45,5.8.21.12.49-.03.49-.28-.06-2.67-2.26-4.39-4.77-5.25h14.22c.09,1.25.72,2.19,1.5,2.19s1.41-.94,1.5-2.19h4.31l2.75,4.71,2.75-4.71h32.25s.02.03.03.04c3.39,2.86,7.66,4.13,12.07,4,3.67-.1,7.87-.94,10.14-4.05h.23v-.32Zm-1-.33h-20.5c6.26-3.89,14.22-3.91,20.5,0Zm-84.61-.33c2.41-1.9,5.23-3.17,7.9-4.67-.55,3.24-4.92,4.65-7.9,4.67Zm7.9,5.64c-2.67-1.5-5.48-2.77-7.89-4.66h.37c2.96.13,6.99,1.56,7.51,4.66Zm66.58-1.25c-3.76-.04-7.34-1.12-10.31-3.41h20.4c-2.34,2.8-6.62,3.44-10.09,3.41Z"/>
</svg>