<?xml version="1.0" encoding="UTF-8"?>
<svg id="Capa_1" data-name="Capa 1" xmlns="http://www.w3.org/2000/svg" viewBox="0 0 603.1 497.16">
  <defs>
    <style>
      .cls-1 {
        fill: #303030;
      }
    </style>
  </defs>
  <path class="cls-1" d="m585.37,102.33c7.22,0,7.23-11.22,0-11.22s-7.23,11.22,0,11.22Z"/>
  <path class="cls-1" d="m518.02,220.42c-7.22,0-7.23,11.22,0,11.22s7.23-11.22,0-11.22Z"/>
  <path class="cls-1" d="m513.98,242.87c4.33,0,4.34-6.73,0-6.73s-4.34,6.73,0,6.73Z"/>
  <path class="cls-1" d="m575.94,221.32c4.33,0,4.34-6.73,0-6.73s-4.34,6.73,0,6.73Z"/>
  <path class="cls-1" d="m546.31,105.48c-4.33,0-4.34,6.73,0,6.73s4.34-6.73,0-6.73Z"/>
  <path class="cls-1" d="m597.45,281.57c-7.01-8.21-17.18-12.36-27.33-15.2-.1-.03-.18-.02-.28-.02-2.91-3.9-5.33-8.2-7.1-12.87-.1-.27-.29-.45-.49-.57v-16.8c2.28,3.11,5.25,5.58,8.72,7.24,1.4,1.77,3.14,3.19,5.25,4.08,1.79.75,4.78,1.74,6.2-.16,1.1-1.47.56-3.61-.76-4.73-2.3-1.95-6.42-1.55-9.2-1.78-.25-.02-.44.07-.6.18-.29-.21-.64-.24-.96-.15-3.59-1.96-6.53-4.91-8.52-8.64-.04-.07-.09-.1-.13-.15v-20.74c.09-.25.09-.49,0-.69v-32.56c1.43,3.6,3.55,6.91,5.85,10.13,0,.44.23.87.75,1.04.07.1.14.19.21.29-.01.08-.04.14-.04.22.04,3.96.56,9.08,3.29,12.22,1.78,2.05,5.15,3.05,7.31.95,2.61-2.53.66-6.77-1.03-9.23-2.04-2.98-4.96-5.06-8.31-6.28-3.68-5.08-7.12-10.44-7.59-16.87-.03-.38-.21-.65-.45-.83v-4.53c1.52,2.39,3.39,4.51,5.99,5.45.72,2.29,1.97,4.37,3.8,5.95,1.39,1.2,3.46,1.96,4.63.07.95-1.53.3-3.58-.75-4.87-1.41-1.72-3.61-2.6-5.71-3.12-.26-.06-.48-.02-.68.06-3.2-.79-5.06-4.03-6.59-6.76-.17-.31-.42-.47-.68-.53v-50.02c3.53,24.89,15.33,48.12,38.63,60.45,1.28.68,2.41-1.26,1.13-1.94-.02-.01-.04-.03-.06-.04,0-.04.02-.07.02-.11-.33-14.04-1.98-27.8-10.15-39.64-3.54-5.12-7.8-9.68-12.12-14.14-5.08-5.24-14.74-12.68-16.37-20.35,0-.1,0-.21,0-.31,0-.19-.04-.35-.11-.49-.04-.27-.09-.55-.11-.82-.03-.57-.41-.91-.84-1.02v-34.34c.54,1.34,1.13,2.65,1.82,3.87,4.04,7.11,15,9.54,22.33,10.75.74.12,1.38-.3,1.42-1.08.01-.23-.01-.44-.01-.66.75-.26,1.14-1.48.26-2.08-.13-.09-.28-.18-.41-.26-.67-4.78-3.49-8.51-7.28-11.9-6.58-5.88-12.75-11.47-18.13-18.44v-3.83h-.8c.27-.21.54-.39.82-.6,1.13-.87.01-2.82-1.13-1.94-.6.46-1.2.89-1.79,1.34-.22,0-.44.01-.66.02-.16-.33-.46-.61-.93-.65-6.32-.57-12.38-1.99-18.09-4.19-1.88-3.32-3.38-6.79-4.61-10.39.39-.13.69-.47.66-1.01-.12-2.31,1.16-4.8.08-7.03-.76-1.56-2.54-2.58-4.22-1.87-3.89,1.64-1.16,7.16.7,9.21.06.06.12.08.18.13,1.06,3.31,2.43,6.48,4,9.57-6.94-3.11-13.3-7.43-18.92-12.86-.03-.08-.05-.17-.11-.25-1.11-1.61-1.96-3.29-2.74-5.08-.61-1.39-1.25-2.77-2.38-3.82-1.62-1.51-4.13-2.06-5.98-.58-1.93,1.55-1.41,4.07-.02,5.77,2.04,2.49,5.34,4.04,8.3,5.1.33.12.61.08.83-.05,2.36,2.33,4.81,4.52,7.42,6.45-3.54-.08-6.96-.5-10.12-2.37-1.63-.96-3.62-2.33-5.48-.95-4.51,3.34,4.08,5.27,6.6,5.49.18.19.44.33.78.33h2.53c.47,0,.77-.25.94-.57,2.53.36,5.16.35,7.65.33.13,0,.23-.04.33-.07,7.02,4.6,14.79,7.84,23.1,9.61-11.18.24-22.42.38-33.6.95h-13.62c-.12-.22-.3-.42-.59-.54-2.64-1.05-5.19-2.26-7.68-3.57-1.03-2.83-2.18-5.61-3.45-8.34.28-.11.53-.32.66-.67,2.15-5.85,2.22-11.71.22-17.61-.28-.81-1.23-1.08-1.88-.5-2.87,2.63-5.64,5.57-5.2,9.75.24,2.34,1.46,4.41,2.49,6.48,1.5,3,2.83,6.05,4.06,9.16-3.88-2.27-7.56-4.86-11-7.76-.08-.1-.18-.19-.3-.26-.11-.1-.22-.2-.34-.29-3.21-9.08-9.61-16.39-18.26-20.65-.77-.38-1.66.08-1.69.97-.16,5.13.07,10.41,4.01,14.18,3.99,3.82,9.84,6.03,15.04,7.69,2.08,1.75,4.24,3.39,6.48,4.92-8.73-.02-17.33-.95-25.83-2.79-.07-.34-.27-.64-.63-.75-5.93-3.84-12.66-5.63-19.73-5.23-.57.03-1.17.49-1.12,1.12.69,8.84,11.88,7.15,18.51,6.47,10.39,2.48,20.87,3.68,31.62,3.47.19,0,.35-.05.5-.12,2.93,1.8,5.99,3.42,9.17,4.87h-51.17c-8.84-1.39-17.24-4.28-25.7-7.14-3.22-5.28-7.27-9.89-12.4-13.4-6.39-4.38-13.92-6.52-19.45-12.17-.82-.84-2.09.04-1.88,1.09,1.39,6.82,3.06,13.9,8.63,18.58,6.74,5.66,16.94,7.73,25.36,9.12.47.08.83-.12,1.08-.41,4.62,1.56,9.24,3.06,13.93,4.33h-35.15c-15.92-2.85-32.01-4.52-48.19-4.7-13.36-.14-29.44-1.2-41.4,5.81-1-.2-1.75,1.39-.71,2.12,13.05,9.12,28.69,10.44,44.19,9.83,14.7-.57,30.2-1.61,42.71-10,.49-.13.99-.25,1.48-.39.23-.07.31-.25.33-.43h1.51c.43.08.87.14,1.3.22.37.07.67-.03.91-.22h36.11c-3.12.87-6.14,1.97-9.04,3.33-.18-.17-.4-.3-.71-.32-6.54-.41-12.98.02-19.41,1.21-.22-.38-.63-.61-1.17-.4-2,.76-4.28-.16-6.13,1.09-1.25.84-2.17,2.51-1.44,3.97.83,1.64,2.97,1.55,4.51,1.28,2.21-.39,4.17-1.57,5.63-3.25.18-.21.26-.45.27-.7,4.93-.84,9.87-1.18,14.85-1.05-5.05,2.83-9.65,6.43-13.71,10.72-.31-.19-.69-.27-1.1-.09-3.31,1.46-16.38,8.71-10.18,13.33,2.4,1.79,5.34.6,7.18-1.39,2.04-2.21,3.18-5.07,3.7-8.01,4.02-4.7,8.65-8.62,13.77-11.71-.64,1.67-.97,3.44-.96,5.27-1.38,1.45-2.62,3.19-2.49,5.28.11,1.77,1.29,3.54,3.09,3.92,1.88.39,3.69-.97,4.37-2.66.86-2.17-.08-4.43-1.36-6.2-.25-.34-.59-.47-.93-.47.06-.35-.12-.66-.4-.88.16-2.15.82-4.15,2.05-6,.03-.05.03-.09.06-.14,5.49-2.79,11.43-4.73,17.76-5.64.38-.05.6-.25.72-.5h44.01c-15.48,2.64-29.95,8.33-44.47,14.5-.89-.16-1.88.7-1.2,1.57,4.46,5.78,10.94,6.94,17.92,7.37,12.16.76,24.54,1.06,36.7.09,22.73-1.82,40.24-10.44,58-23.53h1.04c-.42.3-.64.82-.24,1.36.09.12.19.24.28.36-.3,3.08-.25,6.31.16,9.54-.65,3.08-1.68,6.1-3.05,9-3.84,2.73-8.75,6.34-13.28,7.17-3.55.65-8.32-3.18-11.69-.28-.82.71-1.21,1.63-1.18,2.55-.08.36-.03.72.2.99.19.44.47.86.9,1.24.82.72,1.78.92,2.79.86,1.41.4,3.21-.37,4.4-1.48.95-.5,1.84-1.02,2.56-1.38.02,0,.02-.02.03-.03,1.28.07,2.41-.23,3.77-.73,3.24-1.2,6.34-2.9,9.3-4.78-4.8,7.91-12.11,14.39-20.6,17.59-4.16.12-8.72.32-12.69,1.5-1.78.53-4.02,2.22-2.22,4.16,1.6,1.72,5.36,1.5,7.43,1.06.27-.06.52-.17.78-.25.74-.09,1.47-.25,2.22-.51,2.1-.75,3.95-1.95,5.68-3.34.01,0,.02,0,.03-.01,0,0,0,0,0,0,.07-.06.16-.11.23-.17.27-.22.38-.48.38-.72,4.43-1.83,8.49-4.49,12.06-7.73-.14.88-.23,1.77-.29,2.66-.2.04-.39.13-.56.34-1.3,1.62-2.67,3.39-2.72,5.56-.04,1.85.89,3.66,2.73,4.24,1.61.51,3.34-.13,4.04-1.72,1.01-2.3-.68-4.32-.9-6.55-.03-.34-.2-.59-.4-.78.07-2.22.38-4.4.97-6.57,3.14-3.38,5.77-7.24,7.78-11.38.01,0,.02-.01.03-.02.4-.28.52-.69.47-1.08.41-.91.79-1.84,1.15-2.77v54.83c-1.26,5.82-3.89,10.95-7.44,15.44-.15,0-.31.04-.47.12-4.55,2.23-9.35,3.16-14.31,3-.05-.42-.29-.83-.76-.97-2.62-.78-10.55-2.25-9.37,2.96.34,1.54,1.68,2.81,3.21,3.12,1.92.38,3.73-.6,5.28-1.68,1.22-.13,2.44-.34,3.66-.7.31-.09.5-.27.63-.49,3.03-.15,6-.72,8.89-1.72-.33.34-.67.67-1.01,1-.33,0-.65.15-.84.55-.07.14-.1.28-.16.42-6.15,5.63-13.79,10-21.61,13.22-.11.05-.2.12-.28.19-.17-.15-.38-.28-.67-.3-6.89-.55-21.35,2.42-19.21,12.2.2.93,1.21.98,1.78.5.16.13.35.24.6.26,8.14.88,15.98-3.38,19.73-10.65.12-.24.13-.47.1-.68,1.95-.84,3.89-1.74,5.79-2.71-3.8,5.52-6.48,11.54-8.01,17.95-.32-.27-.77-.39-1.25-.13-3.47,1.84-5.19,4.86-5.78,8.7-1.03,6.68.04,14.11.22,20.85.04,1.44,2.28,1.45,2.24,0,8.76-6.51,11.67-18.37,6.7-28.19-.03-.06-.07-.09-.11-.14,1.67-7.42,4.93-14.33,9.78-20.49.2-.25.26-.53.25-.8,2.85-1.67,5.57-3.51,8.11-5.52-.68,2.37-1,4.79-1.04,7.25-5.1,6.15-3.88,15.52,2.68,20.12,1.02.72,1.99-.62,1.49-1.54,3.86-5.82,3.44-13.32-.9-18.81-.3-.38-.68-.44-1.02-.32.12-3.31.86-6.55,2.27-9.65,4.6-4.28,8.38-9.25,10.83-14.98v49.06c-.59-.04-1.25.3-1.33,1.06-.31,3.09-1.97,5.72-4.38,7.52-.04.02-.08.05-.12.08-.06.04-.12.07-.17.11-2.4.09-4.72.8-6.68,2.22-1.49,1.08-3.43,2.89-2.32,4.89,1.15,2.07,3.73,1.64,5.37.52,2.19-1.5,3.93-3.67,5.26-5.96,1.98-1.46,3.47-3.42,4.37-5.69v10.19c-.33.16-.61.46-.65.93-.32,3.69-2.09,7.03-4.78,9.42-.18-.26-.46-.45-.87-.45-6.9-.08-12.24,4.99-12.7,11.84-.04.57.55,1.17,1.12,1.12,6.45-.52,12.86-3.98,14-10.86,0-.03,0-.05,0-.07,1.63-1.47,2.94-3.23,3.88-5.21v14.95c-.29.17-.5.46-.45.91.22,2.27.36,4.55.41,6.82-4.77,7.36-12.11,12.84-18.22,19.05-5.49,5.57-10.69,11.44-15.26,17.8-8.96,12.48-14.86,26.59-15.75,42.01-.05.92.97,1.3,1.69.97,24.69-11.46,41.77-33.22,47.59-58.58v46.37c.38,18.04-7.18,34.11-19.37,45.61-.21-.1-.45-.15-.74-.07-4.56,1.19-9.12,1.35-13.56.5-.02-.22-.09-.44-.27-.64-4.58-5.1-11.33-7.22-17.99-5.82-.92-.53-2.11.84-1.28,1.83,4.67,5.62,11.64,8.17,18.84,7.2.29-.04.47-.17.61-.34,3.73.68,7.53.71,11.36.05-7.25,6.03-15.89,10.51-25.35,13.03-.04-.02-.06-.05-.11-.07-1.76-.73-2.61-3.07-4.15-4.2-1.1-.81-2.35-1.33-3.7-1.53-2.46-.36-5.67.38-6.77,2.89-1.12,2.55,1,4.82,3.19,5.78,2.87,1.27,6.09.79,9.05-.05.17.05.36.07.57.02,3.74-.84,7.37-1.99,10.85-3.41-4.99,4.05-10.2,7.74-15.88,10.56-7.01-1.35-20.73-.15-20.47,9.66.03,1.21,1.61,1.39,2.09.57,7.17.67,14.07-2.03,18.89-7.4.21-.23.28-.48.28-.72,7.65-3.78,14.49-9.1,21.05-14.73-1.84,2.75-3.73,5.48-5.72,8.13-3.81,3.03-11.93,9.85-5.09,11.92,7.46,2.26,7.11-10.53,9.6-13.89.19-.25.22-.5.18-.72,1.92-2.7,3.79-5.43,5.56-8.24.14-.22.17-.43.15-.64,10.7-6.75,19.33-16.33,24.62-27.72-1.48,9.74-4.05,18.83-10.36,27.12-.35.46-.67.91-1.01,1.36-4.25,4.06-11.92,3.97-14.99,9.37-.25.44-.17.85.06,1.17-.3.84-.1,1.62,1.06,2.14,2.75,1.23,5.21-3.64,5.64-5.61.02-.1,0-.19,0-.28,1.69-.73,3.47-1.33,4.97-2.07-2.35,3.72-4.09,7.51-5.04,11.9-.27.05-.53.22-.7.54-1.73,3.14-3.55,6.5-3.76,10.16-.11,1.97.2,5.03,2.65,5.43,2.54.41,4.01-2.7,4.55-4.67.94-3.43.2-7.1-.52-10.5-.02-.07-.05-.12-.08-.18,1.63-7.23,5.9-12.44,9.9-18.21,1.09,3.39.47,6.84.26,10.37-.03.47,0,.94-.01,1.42-5.38,4.07-3.76,11.27-.5,16.33.36.56,1.27.8,1.76.23,3.85-4.51,5.31-10.91.99-15.56,0-.08,0-.17,0-.25.04-.18.05-.35.01-.53.04-1.52.11-3.04.23-4.58.27-3.43.21-6.45-1.19-9.63,0-.02-.02-.03-.03-.04,1.11-1.71,2.16-3.5,3.1-5.42.6,1.94,1.07,3.91,1.38,5.92-.17.12-.32.28-.4.53-.78,2.21-1.51,4.59-.74,6.92.44,1.33,1.82,3.42,3.51,3,1.67-.42,2.1-3.03,2.08-4.45-.03-1.85-.75-3.53-1.96-4.89-.43-3.5-1.24-6.88-2.49-10.18,2.98-7.63,3.99-15.99,4.84-24.11.19,4.79.81,9.35,2.81,13.59,0,.29.1.57.31.8-.16.17-.29.38-.32.66-.37,3.13.63,6.93,2.77,9.32,2.43,2.71,6.86,3.94,10.25,4.86.63.17,1.52-.34,1.42-1.08-.46-3.57-1.38-7.59-3.97-10.26-2.24-2.32-5.32-3.86-8.31-5.04-1.81-3.75-2.48-7.82-2.7-12.04,1.21,1.23,2.59,2.26,4.12,3.1,1.14,2.19,5.29,5.36,7.14,2.85,1.04-1.41.04-3.04-1.22-3.85-1.49-.96-3.2-1.2-4.93-1.01-2.08-1.16-3.84-2.69-5.23-4.65-.02-2.14,0-4.29-.03-6.44,0-.26-.09-.45-.21-.62.39-2.68.59-5.42.63-8.21h.06v-22.68c1.24,2.67,2.67,5.21,4.29,7.61-.09.2-.13.44-.05.72,2.36,8.31,7.25,15.46,14.27,20.55,3.15,2.28,6.65,4.09,10.34,5.32,2.19.73,8.38,2.85,10.66,1.63,4.18-2.22-2.6-10.16-4.31-12.16Zm-21.58-36.91s.02,0,.02,0c.03.11.08.19.14.28-.1-.06-.21-.13-.31-.2.05-.03.1-.05.15-.09ZM486.56,14.46c-.75-3.63.79-5.78,2.89-7.84,1.19,4.51,1.08,8.89-.34,13.38-.9-1.72-2.18-3.75-2.55-5.54Zm-46.76,6.93c4.17-.06,8.15.67,11.9,2.21-.61.18-.92.9-.72,1.48-.53.06-1.06.15-1.59.19-2.98.2-8.33-.46-9.59-3.87Zm26.63-6.27c-4.31-3.03-5.15-7.35-5.17-12.14,5.88,3.29,10.56,8.09,13.63,14-1.71-1.69-3.37-3.43-4.94-5.29-.94-1.1-2.52.49-1.59,1.59,1.7,2.01,3.51,3.89,5.36,5.7-2.56-1.05-5.05-2.29-7.29-3.86Zm-77.06-9.04c3.71,2.94,7.92,4.97,12.18,7.23,6.79,3.61,12.12,8.5,16.22,14.94-6.16-1.14-12.63-2.75-17.95-5.85-6.41-3.74-8.85-9.68-10.45-16.31Zm14.34,37.68c-.21.12-.41.28-.62.41-.04.01-.09.02-.13.03.15-.21.42-.35.75-.44Zm2.46,19.79s.01.02.02.03c-.11.11-.23.2-.34.29.11-.11.22-.22.32-.33Zm114.65,124.07c-.61-7.96-2.35-20.61,4.23-24.61-.54,2.75-.88,5.57-1.01,8.45-.06,1.44,2.18,1.44,2.24,0,.08-1.83.28-3.62.53-5.39,2.55,7.69.19,16.25-6,21.55Zm-12.89-32.82c-.12-.01-.21.01-.31.03-.63-7.33,12.25-8.9,17.13-8.51.13.01.24-.02.34-.04-3.59,5.97-10.15,9.28-17.17,8.52Zm39.23,4.71c-3.5-3.43-4.4-8.91-2.28-13.28.08.66.09,1.32.21,1.99.26,1.42,2.43.82,2.16-.6-.18-.95-.23-1.9-.3-2.84,2.99,4.49,2.98,10.16.21,14.73Zm-3.69,42.23c.81-4.31,4.08-7.45,8.34-8.13-.5.26-1,.52-1.53.72-1.33.52-.75,2.69.6,2.16.75-.29,1.48-.63,2.17-1.01-1.76,3.61-5.51,5.63-9.58,6.26Zm-33.48,118.11c4.46-.57,8.78.65,12.26,3.4-1.34-.46-2.67-.98-3.97-1.63-1.29-.64-2.43,1.29-1.13,1.94.82.41,1.65.77,2.48,1.11-3.6-.59-6.93-2.25-9.64-4.81Zm-22.74,37.83c1.14-5.32,8.6-6.51,14.12-6.23-2.61,1.05-5.3,1.95-8.14,2.56-1.41.3-.81,2.47.6,2.16,2.34-.5,4.57-1.22,6.76-2.03-3.86,2.69-8.48,3.91-13.34,3.53Zm61.81-9.27c.05,1.92.17,3.84.4,5.77.13,1.15,1.61,1.36,2.09.64-.31,1.48-.96,2.93-1.86,4.25-1.83-3.37-2.93-7.64-.63-10.66Zm2.64,5.71c-.14-1.17-.23-2.34-.29-3.5.37,1.13.45,2.32.29,3.5Zm11.92-251.37c11.75,21.75,23.51,43.51,35.26,65.26-23.06-13.86-33.49-39.19-35.26-65.26Zm18.14,18.58c12.63,13.61,17.11,27.92,17.87,45.9-10.93-20.23-21.86-40.47-32.8-60.7,4.64,5.54,10.92,10.49,14.92,14.8Zm-16.37-61.51c-1.46-2.82-2.5-6.05-3.14-9.37v-3.89c.05-.36.11-.71.15-1.07,1.87,4.72,4.18,9.42,7.41,13.2,4.14,4.84,10.37,8.22,15.75,11.71,0,.12,0,.25,0,.37-7.63-1.34-16.4-3.67-20.18-10.95Zm6.38-7.07c4.82,4.43,11.22,8.37,13.21,14.62-4.31-2.73-8.9-5.48-12.42-8.98-3.44-3.42-5.84-8.14-7.73-12.82,2.18,2.51,4.47,4.92,6.94,7.18Zm-216.43-20.22c12.33.27,24.58,1.43,36.75,3.3v1.35h1.89c-.45.27-.88.58-1.33.84-14.83,3.51-30.08,4.27-45.2,1.7-10.75-1.82-21.08-5.43-31.81-3.62,11.9-5.01,27.33-3.84,39.69-3.56Zm-1.16,13.22c-14.23.55-28.49-.57-40.75-8.12,14.32-3.56,29.07,3.12,43.45,4.31,10.66.88,21.24.14,31.63-1.95-10.66,4.58-22.71,5.31-34.33,5.76Zm190.7-8.57c-30.88,5.3-61.45,13.36-92.8,14.8,17.21-7.13,34.11-12.8,52.98-14.09,4.37-.3,8.74-.52,13.12-.71h26.7Zm-38.61,20.71c-8.82,1.07-17.73,1.22-26.6,1.05-9.22-.17-23.72,1.54-30.83-5.61.16-.07.32-.13.48-.2,34.46-1.14,67.94-10.6,101.88-15.95h3.53c-14.69,10.57-29.73,18.43-48.44,20.71Zm12.65,207.11c3.5-7.88,8.29-15.13,13.71-21.81,7.86-9.7,18.71-17.44,26.39-27.27-7.73,26.08-34.31,42.94-45.54,67.85.24-1.79.53-3.57.93-5.33,1.03-4.62,2.59-9.12,4.51-13.44Zm16.06,7.63c-4.96,4.77-12.15,11.56-18.95,13.68-1.28,1.55-2.18,1.71-2.75.6,10.35-26.41,38.4-43.48,46.64-70.41-.52,13.17-3.93,26.07-10.56,37.69-3.87,6.8-8.74,13.01-14.37,18.44Zm35.74,44.86c2.17,1.94,3.14,4.86,3.66,7.7-2.23-.63-4.57-1.42-6.37-2.74-2.01-1.48-3.08-4.03-3.32-6.55.47.66.91,1.32,1.48,1.96.96,1.08,2.55-.51,1.59-1.59-.42-.47-.73-.98-1.1-1.47,1.46.75,2.87,1.62,4.06,2.69Zm29-25.96c-1.48-.07-2.94-.27-4.39-.6-11.03-2.36-20.12-10.07-24.74-20.13,5.54,6.39,12.48,11.5,20.59,14.88,1.33.55,1.91-1.62.6-2.16-7.63-3.18-14.22-8.05-19.48-14.12,6.23,1.9,12.28,4.33,17.55,8.25,2.75,2.04,5.11,4.32,7.16,7.07,1.11,1.48,2.53,3.24,2.94,5.1,1.24,1.53,1.17,2.1-.23,1.72Z"/>
</svg>